<svg width="54" height="44" viewBox="0 0 54 44" fill="none" xmlns="http://www.w3.org/2000/svg">
<path id="&#226;&#128;&#156; copy" d="M2.46167e-05 43.1999V28.9999C2.46167e-05 25.2666 0.333358 21.7999 1.00003 18.5999C1.80002 15.3999 3.06669 12.2666 4.80003 9.19995C6.66669 5.99995 9.06669 2.93328 12 -5.38826e-05L19.8 5.79994C17.5334 8.33328 15.7334 10.7333 14.4 12.9999C13.0667 15.2666 12.1334 17.4666 11.6 19.5999C11.0667 21.7333 10.8 23.9333 10.8 26.1999L6.00002 22.8H20.4V43.1999H2.46167e-05ZM33.2 43.1999V28.9999C33.2 25.2666 33.5334 21.7999 34.2 18.5999C35 15.3999 36.2667 12.2666 38 9.19995C39.8667 5.99995 42.2667 2.93328 45.2 -5.38826e-05L53 5.79994C50.7334 8.33328 48.9334 10.7333 47.6 12.9999C46.2667 15.2666 45.3334 17.4666 44.8 19.5999C44.2667 21.7333 44 23.9333 44 26.1999L39.2 22.8H53.6V43.1999H33.2Z" fill="#62E0D9"/>
</svg>
