<svg width="92" height="65" viewBox="0 0 92 65" fill="none" xmlns="http://www.w3.org/2000/svg">
<g id="Group 19">
<path id="Stroke 74" d="M86.3567 6.85695L87.0588 6.87661V6.87661L86.3567 6.85695ZM85.0846 59.8946L84.581 60.3843L84.581 60.3843L85.0846 59.8946ZM84.8861 59.3853L85.5882 59.4049V59.4049L84.8861 59.3853ZM86.3124 58.6375L85.6103 58.6178C85.6043 58.8295 85.6943 59.0326 85.855 59.1706C86.0158 59.3085 86.2302 59.3665 86.4386 59.3285L86.3124 58.6375ZM87.7392 7.67513L87.9363 7.00092C87.7273 6.93982 87.5018 6.97908 87.3258 7.10721C87.1498 7.23533 87.0431 7.43784 87.037 7.65547L87.7392 7.67513ZM61.4748 1.01465L62.0588 1.40491V1.4049L61.4748 1.01465ZM56.147 8.98818V9.69062C56.3816 9.69062 56.6007 9.5735 56.7311 9.37844L56.147 8.98818ZM82.1697 58.7025V59.4049C82.4544 59.4049 82.711 59.233 82.8193 58.9696C82.9276 58.7062 82.8662 58.4035 82.6638 58.2032L82.1697 58.7025ZM62.4343 2.10735V1.40491C62.1997 1.40491 61.9806 1.52203 61.8502 1.71709L62.4343 2.10735ZM57.1065 10.0809L56.5225 9.69062V9.69062L57.1065 10.0809ZM87.0588 5.47173C86.2982 5.47173 85.6758 6.07701 85.6545 6.83729L87.0588 6.87661V6.87661V5.47173ZM91.4049 9.64125C91.4049 7.25627 89.3725 5.47173 87.0588 5.47173V6.87661C88.6849 6.87661 90 8.11752 90 9.64125H91.4049ZM91.4049 55.2579V9.64125H90V55.2579H91.4049ZM85.5882 60.8098C88.7159 60.8098 91.4049 58.4067 91.4049 55.2579H90C90 57.5468 88.0268 59.4049 85.5882 59.4049V60.8098ZM84.581 60.3843C84.8455 60.6563 85.2088 60.8098 85.5882 60.8098V59.4049V59.4049L84.581 60.3843ZM84.1839 59.3656C84.1733 59.7449 84.3165 60.1123 84.581 60.3843L85.5882 59.4049V59.4049L84.1839 59.3656ZM85.6545 6.83729L84.1839 59.3656L85.5882 59.4049L87.0588 6.87661L85.6545 6.83729ZM87.0146 58.6571L88.4413 7.69479L87.037 7.65547L85.6103 58.6178L87.0146 58.6571ZM88.5951 55.2579C88.5951 56.5254 87.6156 57.6856 86.1863 57.9464L86.4386 59.3285C88.4664 58.9584 90 57.2718 90 55.2579H88.5951ZM88.5951 9.64125V55.2579H90V9.64125H88.5951ZM87.5421 8.34935C88.1963 8.54061 88.5951 9.09165 88.5951 9.64125H90C90 8.40658 89.1288 7.34956 87.9363 7.00092L87.5421 8.34935ZM62.0588 2.92063e-05C61.5896 2.92063e-05 61.1514 0.234269 60.8907 0.624402L62.0588 1.4049V1.40491V2.92063e-05ZM78.6678 2.92063e-05H62.0588V1.40491H78.6678V2.92063e-05ZM82.8409 4.16681C82.8409 1.86326 80.9686 2.92063e-05 78.6678 2.92063e-05V1.40491C80.1959 1.40491 81.436 2.64233 81.436 4.16681H82.8409ZM82.8409 55.2621V4.16681H81.436V55.2621H82.8409ZM85.5882 58C84.0678 58 82.8409 56.7715 82.8409 55.2621H81.436C81.436 57.5502 83.2947 59.4049 85.5882 59.4049V58ZM86.9931 59.4049C86.9931 58.629 86.3641 58 85.5882 58V59.4049V59.4049H86.9931ZM85.5882 60.8098C86.3641 60.8098 86.9931 60.1808 86.9931 59.4049H85.5882V59.4049V60.8098ZM21.9204 60.8098H85.5882V59.4049H21.9204V60.8098ZM13.5951 52.5001C13.5951 57.0917 17.3245 60.8098 21.9204 60.8098V59.4049C18.0975 59.4049 15 56.3129 15 52.5001H13.5951ZM13.5951 12.4525V52.5001H15V12.4525H13.5951ZM17.7682 8.28574C15.4673 8.28574 13.5951 10.149 13.5951 12.4525H15C15 10.928 16.24 9.69062 17.7682 9.69062V8.28574ZM56.147 8.28574H17.7682V9.69062H56.147V8.28574ZM60.8907 0.624399L55.563 8.59793L56.7311 9.37844L62.0588 1.40491L60.8907 0.624399ZM80.0311 55.2621C80.0311 56.8032 80.6611 58.1977 81.6755 59.2017L82.6638 58.2032C81.9047 57.4519 81.436 56.4125 81.436 55.2621H80.0311ZM80.0311 4.16681V55.2621H81.436V4.16681H80.0311ZM78.6678 2.80979C79.4228 2.80979 80.0311 3.42098 80.0311 4.16681H81.436C81.436 2.64239 80.196 1.40491 78.6678 1.40491V2.80979ZM62.4343 2.80979H78.6678V1.40491H62.4343V2.80979ZM57.6906 10.4711L63.0183 2.4976L61.8502 1.71709L56.5225 9.69062L57.6906 10.4711ZM56.5225 11.0955C56.9917 11.0955 57.4299 10.8613 57.6906 10.4711L56.5225 9.69062V9.69062V11.0955ZM17.7682 11.0955H56.5225V9.69062H17.7682V11.0955ZM16.4049 12.4525C16.4049 11.7067 17.0132 11.0955 17.7682 11.0955V9.69062C16.24 9.69062 15 10.9281 15 12.4525H16.4049ZM16.4049 52.5001V12.4525H15V52.5001H16.4049ZM21.9204 58C18.8707 58 16.4049 55.5343 16.4049 52.5001H15C15 56.3129 18.0975 59.4049 21.9204 59.4049V58ZM82.1697 58H21.9204V59.4049H82.1697V58Z" fill="#62E0D9"/>
<g id="Group 18">
<path id="Stroke 58" fill-rule="evenodd" clip-rule="evenodd" d="M41.2805 27.9659V31.1671C41.2805 32.2279 42.1215 33.0878 43.1591 33.0878H46.2899M48.7946 33.0878V32.8682C48.7946 32.1889 48.531 31.5371 48.0614 31.0569L43.2668 26.1553C42.7965 25.6751 42.1597 25.4049 41.4953 25.4049H27.5047C26.1215 25.4049 25 26.5516 25 27.9659V54.8559C25 56.2702 26.1215 57.4168 27.5047 57.4168H46.2899C47.6731 57.4168 48.7946 56.2702 48.7946 54.8559V45.8925" fill="#62E0D9"/>
<path id="Stroke 59" d="M45.9507 37.2887L45.6638 37.5694L45.6638 37.5694L45.9507 37.2887ZM49.7078 41.1302L49.4208 41.4108L49.4208 41.4108L49.7078 41.1302ZM49.7078 41.6915L49.4208 41.4108L49.4208 41.4108L49.7078 41.6915ZM37.8104 53.856L38.0974 54.1367L38.0974 54.1367L37.8104 53.856ZM33.4795 49.4533L33.1925 49.1726L33.1925 49.1726L33.4795 49.4533ZM45.3768 37.2887L45.6638 37.5694L45.6638 37.5694L45.3768 37.2887ZM34.1678 53.174H33.7664C33.7664 53.3957 33.9462 53.5754 34.1678 53.5754V53.174ZM34.1678 49.8976L33.8809 49.6169C33.8075 49.6919 33.7664 49.7927 33.7664 49.8976H34.1678ZM37.3546 53.174V53.5754C37.4626 53.5754 37.5661 53.5318 37.6416 53.4546L37.3546 53.174ZM48.8593 41.4108L49.1463 41.6915C49.2989 41.5355 49.2989 41.2862 49.1463 41.1302L48.8593 41.4108ZM45.6638 38.1435L45.9507 37.8628C45.8752 37.7856 45.7718 37.7421 45.6638 37.7421C45.5557 37.7421 45.4523 37.7856 45.3768 37.8628L45.6638 38.1435ZM49.9357 35.9308L50.2227 35.6501V35.6501L49.9357 35.9308ZM46.7049 35.9308L46.9919 36.2115L46.7049 35.9308ZM51.0359 37.0557L50.7489 37.3364V37.3364L51.0359 37.0557ZM51.0359 40.3335L50.7489 40.0529V40.0529L51.0359 40.3335ZM49.7078 41.6915L49.4208 41.4108V41.4108L49.7078 41.6915ZM49.1338 41.6915L49.4208 41.4108L49.4208 41.4108L49.1338 41.6915ZM45.3768 37.8501L45.6638 37.5694V37.5694L45.3768 37.8501ZM45.3768 37.2887L45.0898 37.0081V37.0081L45.3768 37.2887ZM47.2788 36.4921L47.5658 36.7728V36.7728L47.2788 36.4921ZM49.3618 36.4921L49.0748 36.7728V36.7728L49.3618 36.4921ZM46.2252 37.5694L45.9382 37.2887C45.7857 37.4447 45.7857 37.6941 45.9382 37.8501L46.2252 37.5694ZM49.4208 40.8368L49.1338 41.1174C49.2094 41.1946 49.3128 41.2382 49.4208 41.2382C49.5288 41.2382 49.6322 41.1946 49.7078 41.1174L49.4208 40.8368ZM50.462 39.7722L50.7489 40.0529V40.0529L50.462 39.7722ZM50.462 37.617L50.7489 37.3364V37.3364L50.462 37.617ZM46.2377 37.0081C46.0866 36.8537 45.8798 36.7666 45.6638 36.7666V37.5694L45.6638 37.5694L46.2377 37.0081ZM49.9947 40.8495L46.2377 37.0081L45.6638 37.5694L49.4208 41.4108L49.9947 40.8495ZM49.9947 41.9721C50.2999 41.6601 50.2999 41.1615 49.9947 40.8495L49.4208 41.4108V41.4108L49.9947 41.9721ZM38.0974 54.1367L49.9947 41.9721L49.4208 41.4108L37.5235 53.5754L38.0974 54.1367ZM37.5235 54.3781C37.7395 54.3781 37.9464 54.2911 38.0974 54.1367L37.5235 53.5754H37.5235V54.3781ZM33.7664 54.3781H37.5235V53.5754H33.7664V54.3781ZM32.9637 53.5754C32.9637 54.0187 33.3231 54.3781 33.7664 54.3781V53.5754V53.5754H32.9637ZM32.9637 49.7339V53.5754H33.7664V49.7339H32.9637ZM33.1925 49.1726C33.0458 49.3226 32.9637 49.5241 32.9637 49.7339H33.7664H33.7664L33.1925 49.1726ZM45.0898 37.0081L33.1925 49.1726L33.7664 49.7339L45.6638 37.5694L45.0898 37.0081ZM45.6638 36.7666C45.4477 36.7666 45.2409 36.8537 45.0898 37.0081L45.6638 37.5694L45.6638 37.5694V36.7666ZM34.5692 53.174V49.8976H33.7664V53.174H34.5692ZM37.3546 52.7726H34.1678V53.5754H37.3546V52.7726ZM48.5724 41.1302L37.0676 52.8933L37.6416 53.4546L49.1463 41.6915L48.5724 41.1302ZM45.3768 38.4241L48.5724 41.6915L49.1463 41.1302L45.9507 37.8628L45.3768 38.4241ZM34.4548 50.1782L45.9507 38.4241L45.3768 37.8628L33.8809 49.6169L34.4548 50.1782ZM50.2227 35.6501C49.1739 34.5778 47.4667 34.5778 46.4179 35.6501L46.9919 36.2115C47.7257 35.4611 48.9148 35.4611 49.6487 36.2115L50.2227 35.6501ZM51.3228 36.775L50.2227 35.6501L49.6487 36.2115L50.7489 37.3364L51.3228 36.775ZM51.3228 40.6142C52.3619 39.5518 52.3619 37.8374 51.3228 36.775L50.7489 37.3364C51.4828 38.0867 51.4828 39.3025 50.7489 40.0529L51.3228 40.6142ZM49.9947 41.9721L51.3228 40.6142L50.7489 40.0529L49.4208 41.4108L49.9947 41.9721ZM49.4208 42.2136C49.6368 42.2136 49.8437 42.1266 49.9947 41.9721L49.4208 41.4108L49.4208 41.4108V42.2136ZM48.8469 41.9721C48.9979 42.1266 49.2048 42.2136 49.4208 42.2136V41.4108V41.4108L48.8469 41.9721ZM45.0898 38.1307L48.8469 41.9721L49.4208 41.4108L45.6638 37.5694L45.0898 38.1307ZM45.0898 37.0081C44.7847 37.3201 44.7847 37.8187 45.0898 38.1307L45.6638 37.5694V37.5694L45.0898 37.0081ZM46.4179 35.6501L45.0898 37.0081L45.6638 37.5694L46.9919 36.2115L46.4179 35.6501ZM47.5658 36.7728C47.9848 36.3444 48.6558 36.3444 49.0748 36.7728L49.6487 36.2115C48.9148 35.4611 47.7257 35.4611 46.9919 36.2115L47.5658 36.7728ZM46.5122 37.8501L47.5658 36.7728L46.9919 36.2115L45.9382 37.2887L46.5122 37.8501ZM49.7078 40.5561L46.5122 37.2887L45.9382 37.8501L49.1338 41.1174L49.7078 40.5561ZM50.175 39.4916L49.1338 40.5561L49.7078 41.1174L50.7489 40.0529L50.175 39.4916ZM50.175 37.8977C50.6037 38.336 50.6037 39.0532 50.175 39.4916L50.7489 40.0529C51.4828 39.3025 51.4828 38.0867 50.7489 37.3364L50.175 37.8977ZM49.0748 36.7728L50.175 37.8977L50.7489 37.3364L49.6487 36.2115L49.0748 36.7728Z" fill="white"/>
<path id="Stroke 60" d="M30.0094 37.4069C29.566 37.4069 29.2066 37.7663 29.2066 38.2097H30.0094V37.4069ZM42.5329 37.4069H30.0094V38.2097H42.5329V37.4069ZM43.3357 38.2097C43.3357 37.7663 42.9762 37.4069 42.5329 37.4069V38.2097V38.2097H43.3357ZM42.5329 39.0125C42.9762 39.0125 43.3357 38.6531 43.3357 38.2097H42.5329V38.2097V39.0125ZM30.0094 39.0125H42.5329V38.2097H30.0094V39.0125ZM29.2066 38.2097C29.2066 38.6531 29.566 39.0125 30.0094 39.0125V38.2097H29.2066ZM30.0094 41.2484C29.566 41.2484 29.2066 41.6078 29.2066 42.0511H30.0094V41.2484ZM41.2805 41.2484H30.0094V42.0511H41.2805V41.2484ZM42.0833 42.0511C42.0833 41.6078 41.7239 41.2484 41.2805 41.2484V42.0511V42.0511H42.0833ZM41.2805 42.8539C41.7239 42.8539 42.0833 42.4945 42.0833 42.0511H41.2805V42.0511V42.8539ZM30.0094 42.8539H41.2805V42.0511H30.0094V42.8539ZM29.2066 42.0511C29.2066 42.4945 29.566 42.8539 30.0094 42.8539V42.0511H29.2066ZM30.0094 45.0898C29.566 45.0898 29.2066 45.4492 29.2066 45.8926H30.0094V45.0898ZM37.5235 45.0898H30.0094V45.8926H37.5235V45.0898ZM38.3263 45.8926C38.3263 45.4492 37.9668 45.0898 37.5235 45.0898V45.8926V45.8926H38.3263ZM37.5235 46.6954C37.9668 46.6954 38.3263 46.3359 38.3263 45.8926H37.5235V45.8926V46.6954ZM30.0094 46.6954H37.5235V45.8926H30.0094V46.6954ZM29.2066 45.8926C29.2066 46.3359 29.566 46.6954 30.0094 46.6954V45.8926H29.2066Z" fill="white"/>
</g>
<g id="Group 17">
<path id="Stroke 33" fill-rule="evenodd" clip-rule="evenodd" d="M32.3668 59.837C32.3668 61.8093 30.7563 63.409 28.7705 63.409H3.59631C1.61055 63.409 0 61.8093 0 59.837V41.9769C0 40.0046 1.61055 38.4049 3.59631 38.4049H28.7705C30.7563 38.4049 32.3668 40.0046 32.3668 41.9769V59.837ZM10.7889 44.9536C10.7889 46.5973 9.44692 47.9303 7.79201 47.9303C6.13711 47.9303 4.79509 46.5973 4.79509 44.9536C4.79509 43.3099 6.13711 41.9769 7.79201 41.9769C9.44692 41.9769 10.7889 43.3099 10.7889 44.9536Z" fill="#62E0D9"/>
<path id="Stroke 34" d="M26.7863 59.0605L19.7373 51.6058L16.8002 54.7119L12.6883 50.3634L4.46439 59.0605" stroke="white" stroke-width="0.65" stroke-linecap="round" stroke-linejoin="round"/>
</g>
</g>
</svg>
