<svg width="69" height="88" viewBox="0 0 69 88" fill="none" xmlns="http://www.w3.org/2000/svg">
<g id="Group 11">
<path id="Path" fill-rule="evenodd" clip-rule="evenodd" d="M43.32 35.463L31.0895 47.9371L22.0914 38.7598L17.5923 43.3484L31.0895 57.1143L51.696 36.0985L47.1959 31.5099L43.32 35.463Z" stroke="#62E0D9" stroke-width="3.06383"/>
<path id="Path_2" fill-rule="evenodd" clip-rule="evenodd" d="M56.5334 9.81157C51.1907 9.81157 45.88 8.67588 41.0512 6.32805C38.7385 5.21419 36.3723 3.79458 34.3272 2.02551C32.2822 3.79458 29.916 5.21419 27.6022 6.32805C22.7745 8.67588 17.4638 9.81157 12.1211 9.81157H1.53191V50.4017C1.53191 57.5108 4.34784 64.3468 9.35761 69.2947C16.7143 76.5446 34.3272 85.9687 34.3272 85.9687C34.3272 85.9687 51.9401 76.5446 59.2958 69.2947C64.3067 64.3468 67.1226 57.5108 67.1226 50.4017V9.81157H56.5334Z" stroke="#62E0D9" stroke-width="3.06383"/>
<path id="Path_3" fill-rule="evenodd" clip-rule="evenodd" d="M58.557 24.4937V50.7425C58.557 55.4851 56.6544 60.0836 53.3385 63.3574C48.7259 67.9046 38.2107 74.1269 34.3283 76.3568C30.4417 74.1247 19.9179 67.8947 15.3107 63.3542C11.9969 60.0814 10.0975 55.4851 10.0975 50.7425V18.8884H12.1211C18.8279 18.8884 25.4555 17.3902 31.2875 14.5553C32.3336 14.0519 33.3551 13.5113 34.3283 12.9457C35.3005 13.5103 36.3284 14.0552 37.3916 14.5684C43.2065 17.3945 49.8255 18.8884 56.5334 18.8884H58.557V24.4937Z" stroke="#62E0D9" stroke-width="3.06383"/>
</g>
</svg>
